<svg xmlns="http://www.w3.org/2000/svg" xmlns:xlink="http://www.w3.org/1999/xlink" width="300" zoomAndPan="magnify" viewBox="0 0 224.87999 74.999997" height="100" preserveAspectRatio="xMidYMid meet" version="1.0"><defs><g/><clipPath id="7f1f170664"><path d="M 0 0.0195312 L 224.761719 0.0195312 L 224.761719 74.980469 L 0 74.980469 Z M 0 0.0195312 " clip-rule="nonzero"/></clipPath><clipPath id="2a72f585ca"><path d="M 1 2.175781 L 224.761719 2.175781 L 224.761719 74.980469 L 1 74.980469 Z M 1 2.175781 " clip-rule="nonzero"/></clipPath></defs><g clip-path="url(#7f1f170664)"><path fill="#ffffff" d="M 0 0.0195312 L 224.878906 0.0195312 L 224.878906 82.476562 L 0 82.476562 Z M 0 0.0195312 " fill-opacity="1" fill-rule="nonzero"/><path fill="#ffffff" d="M 0 0.0195312 L 224.878906 0.0195312 L 224.878906 74.980469 L 0 74.980469 Z M 0 0.0195312 " fill-opacity="1" fill-rule="nonzero"/><path fill="#ffffff" d="M 0 0.0195312 L 224.878906 0.0195312 L 224.878906 74.980469 L 0 74.980469 Z M 0 0.0195312 " fill-opacity="1" fill-rule="nonzero"/></g><g clip-path="url(#2a72f585ca)"><path fill="#f0531b" d="M 204.203125 54.570312 C 200.003906 55.03125 195.800781 55.59375 191.601562 55.851562 C 185.097656 56.261719 178.59375 56.3125 172.089844 56.671875 C 168.351562 56.875 164.664062 57.488281 160.921875 57.695312 C 152.832031 58.15625 144.789062 58.515625 136.699219 58.820312 C 132.445312 58.976562 128.144531 58.71875 123.945312 59.027344 C 108.527344 60.308594 93.113281 61.382812 77.796875 63.277344 C 63.558594 65.070312 49.476562 67.839844 35.289062 70.195312 C 27.503906 71.476562 19.769531 72.960938 11.933594 73.984375 C 4.351562 74.960938 0 69.425781 2.203125 62.714844 C 2.816406 60.820312 1.996094 58.308594 2.96875 56.671875 C 5.582031 52.109375 5.019531 46.832031 6.964844 42.222656 C 7.015625 42.070312 7.015625 41.863281 7.066406 41.761719 C 10.398438 38.6875 8.859375 34.179688 10.292969 30.542969 C 10.652344 29.570312 10.191406 28.339844 10.292969 27.265625 C 10.601562 21.371094 14.390625 18.09375 21.203125 17.480469 C 28.015625 16.863281 34.929688 15.6875 41.742188 14.507812 C 46.660156 13.636719 51.472656 12.203125 56.390625 11.382812 C 60.027344 10.765625 63.816406 10.871094 67.503906 10.613281 C 70.167969 10.410156 72.882812 10.050781 75.546875 9.949219 C 79.746094 9.742188 83.945312 9.742188 88.09375 9.488281 C 92.703125 9.179688 97.261719 8.71875 101.871094 8.359375 C 103.917969 8.207031 105.96875 8.207031 108.015625 8.207031 C 116.980469 8.15625 125.941406 8.15625 134.90625 8 C 137.671875 7.949219 140.4375 7.539062 143.253906 7.488281 C 147.402344 7.335938 151.550781 7.335938 155.699219 7.285156 C 161.949219 7.234375 168.195312 7.539062 174.394531 7.179688 C 180.589844 6.824219 186.839844 5.441406 193.085938 5.285156 C 197.851562 5.183594 202.511719 4.824219 207.121094 3.644531 C 209.785156 2.980469 212.601562 2.929688 215.316406 2.621094 C 217.929688 2.261719 219.515625 3.132812 220.796875 5.441406 C 221.71875 7.027344 222.894531 8.460938 223.972656 10 C 225.046875 11.535156 224.789062 12.558594 223.40625 13.6875 C 222.84375 14.25 222.589844 15.070312 222.691406 15.839844 C 223.816406 19.273438 223.152344 21.832031 220.746094 24.34375 C 219.773438 25.367188 219.566406 27.058594 218.851562 28.339844 C 218.132812 29.621094 217.824219 30.59375 218.285156 32.386719 C 218.695312 34.027344 219.105469 36.691406 217.210938 38.484375 C 215.929688 39.710938 216.238281 42.375 217.160156 43.863281 C 217.722656 44.785156 217.671875 46.21875 217.414062 47.347656 C 217.160156 48.523438 216.597656 49.90625 215.726562 50.675781 C 214.394531 51.90625 212.804688 52.878906 211.117188 53.492188 C 208.964844 54.261719 206.660156 54.570312 204.457031 55.082031 Z M 204.203125 54.570312 " fill-opacity="1" fill-rule="nonzero"/></g><g fill="#ffffff" fill-opacity="1"><g transform="translate(44.59317, 32.146241)"><g><path d="M 8.265625 0 L 4.75 0 L 4.75 -6.796875 C 4.75 -7.617188 4.765625 -8.375 4.796875 -9.0625 C 4.585938 -8.800781 4.320312 -8.523438 4 -8.234375 L 2.53125 -7.03125 L 0.734375 -9.25 L 5.140625 -12.84375 L 8.265625 -12.84375 Z M 8.265625 0 "/></g></g></g><g fill="#ffffff" fill-opacity="1"><g transform="translate(55.134403, 32.146241)"><g><path d="M 9.90625 -6.40625 C 9.90625 -4.132812 9.523438 -2.46875 8.765625 -1.40625 C 8.003906 -0.351562 6.835938 0.171875 5.265625 0.171875 C 3.734375 0.171875 2.578125 -0.378906 1.796875 -1.484375 C 1.015625 -2.585938 0.625 -4.226562 0.625 -6.40625 C 0.625 -8.6875 1.003906 -10.359375 1.765625 -11.421875 C 2.535156 -12.484375 3.703125 -13.015625 5.265625 -13.015625 C 6.796875 -13.015625 7.953125 -12.457031 8.734375 -11.34375 C 9.515625 -10.238281 9.90625 -8.59375 9.90625 -6.40625 Z M 4.078125 -6.40625 C 4.078125 -4.945312 4.164062 -3.945312 4.34375 -3.40625 C 4.53125 -2.863281 4.835938 -2.59375 5.265625 -2.59375 C 5.703125 -2.59375 6.007812 -2.875 6.1875 -3.4375 C 6.363281 -4 6.453125 -4.988281 6.453125 -6.40625 C 6.453125 -7.820312 6.359375 -8.816406 6.171875 -9.390625 C 5.992188 -9.960938 5.691406 -10.25 5.265625 -10.25 C 4.835938 -10.25 4.53125 -9.972656 4.34375 -9.421875 C 4.164062 -8.867188 4.078125 -7.863281 4.078125 -6.40625 Z M 4.078125 -6.40625 "/></g></g></g><g fill="#ffffff" fill-opacity="1"><g transform="translate(65.675636, 32.146241)"><g><path d="M 9.90625 -6.40625 C 9.90625 -4.132812 9.523438 -2.46875 8.765625 -1.40625 C 8.003906 -0.351562 6.835938 0.171875 5.265625 0.171875 C 3.734375 0.171875 2.578125 -0.378906 1.796875 -1.484375 C 1.015625 -2.585938 0.625 -4.226562 0.625 -6.40625 C 0.625 -8.6875 1.003906 -10.359375 1.765625 -11.421875 C 2.535156 -12.484375 3.703125 -13.015625 5.265625 -13.015625 C 6.796875 -13.015625 7.953125 -12.457031 8.734375 -11.34375 C 9.515625 -10.238281 9.90625 -8.59375 9.90625 -6.40625 Z M 4.078125 -6.40625 C 4.078125 -4.945312 4.164062 -3.945312 4.34375 -3.40625 C 4.53125 -2.863281 4.835938 -2.59375 5.265625 -2.59375 C 5.703125 -2.59375 6.007812 -2.875 6.1875 -3.4375 C 6.363281 -4 6.453125 -4.988281 6.453125 -6.40625 C 6.453125 -7.820312 6.359375 -8.816406 6.171875 -9.390625 C 5.992188 -9.960938 5.691406 -10.25 5.265625 -10.25 C 4.835938 -10.25 4.53125 -9.972656 4.34375 -9.421875 C 4.164062 -8.867188 4.078125 -7.863281 4.078125 -6.40625 Z M 4.078125 -6.40625 "/></g></g></g><g fill="#ffffff" fill-opacity="1"><g transform="translate(76.216868, 32.146241)"><g><path d="M 7.28125 -10.171875 C 6.625 -10.171875 6.117188 -10.015625 5.765625 -9.703125 C 5.421875 -9.390625 5.210938 -8.972656 5.140625 -8.453125 L 8.109375 -8.453125 L 8.109375 -6.65625 L 5.015625 -6.65625 L 5 -6.40625 L 5 -6.28125 L 5.015625 -5.890625 L 5.015625 -5.90625 L 7.53125 -5.90625 L 7.53125 -4.09375 L 5.21875 -4.09375 C 5.40625 -3.132812 6.164062 -2.65625 7.5 -2.65625 C 8.34375 -2.65625 9.117188 -2.816406 9.828125 -3.140625 L 9.828125 -0.3125 C 9.234375 0.0078125 8.382812 0.171875 7.28125 0.171875 C 5.800781 0.171875 4.59375 -0.191406 3.65625 -0.921875 C 2.726562 -1.660156 2.128906 -2.71875 1.859375 -4.09375 L 0.484375 -4.09375 L 0.484375 -5.90625 L 1.609375 -5.90625 L 1.59375 -6.078125 L 1.59375 -6.28125 L 1.609375 -6.65625 L 0.484375 -6.65625 L 0.484375 -8.453125 L 1.78125 -8.453125 C 2.082031 -9.953125 2.703125 -11.085938 3.640625 -11.859375 C 4.585938 -12.628906 5.800781 -13.015625 7.28125 -13.015625 C 8.332031 -13.015625 9.351562 -12.796875 10.34375 -12.359375 L 9.296875 -9.734375 C 8.597656 -10.023438 7.925781 -10.171875 7.28125 -10.171875 Z M 7.28125 -10.171875 "/></g></g></g><g fill="#ffffff" fill-opacity="1"><g transform="translate(86.758101, 32.146241)"><g/></g></g><g fill="#ffffff" fill-opacity="1"><g transform="translate(91.431381, 32.146241)"><g><path d="M 12.28125 -6.6875 C 12.28125 -4.550781 11.691406 -2.898438 10.515625 -1.734375 C 9.335938 -0.578125 7.679688 0 5.546875 0 L 1.390625 0 L 1.390625 -12.84375 L 5.828125 -12.84375 C 7.890625 -12.84375 9.476562 -12.3125 10.59375 -11.25 C 11.71875 -10.195312 12.28125 -8.675781 12.28125 -6.6875 Z M 8.6875 -6.5625 C 8.6875 -7.738281 8.453125 -8.609375 7.984375 -9.171875 C 7.515625 -9.742188 6.804688 -10.03125 5.859375 -10.03125 L 4.859375 -10.03125 L 4.859375 -2.84375 L 5.625 -2.84375 C 6.675781 -2.84375 7.445312 -3.148438 7.9375 -3.765625 C 8.4375 -4.378906 8.6875 -5.3125 8.6875 -6.5625 Z M 8.6875 -6.5625 "/></g></g></g><g fill="#ffffff" fill-opacity="1"><g transform="translate(104.634275, 32.146241)"><g><path d="M 9.015625 0 L 1.390625 0 L 1.390625 -12.84375 L 9.015625 -12.84375 L 9.015625 -10.0625 L 4.859375 -10.0625 L 4.859375 -8.03125 L 8.703125 -8.03125 L 8.703125 -5.25 L 4.859375 -5.25 L 4.859375 -2.828125 L 9.015625 -2.828125 Z M 9.015625 0 "/></g></g></g><g fill="#ffffff" fill-opacity="1"><g transform="translate(114.507897, 32.146241)"><g/></g></g><g fill="#ffffff" fill-opacity="1"><g transform="translate(119.181177, 32.146241)"><g><path d="M 10.703125 -8.75 C 10.703125 -7.320312 10.28125 -6.21875 9.4375 -5.4375 C 8.59375 -4.65625 7.390625 -4.265625 5.828125 -4.265625 L 4.859375 -4.265625 L 4.859375 0 L 1.390625 0 L 1.390625 -12.84375 L 5.828125 -12.84375 C 7.453125 -12.84375 8.671875 -12.488281 9.484375 -11.78125 C 10.296875 -11.070312 10.703125 -10.0625 10.703125 -8.75 Z M 4.859375 -7.09375 L 5.484375 -7.09375 C 6.003906 -7.09375 6.414062 -7.238281 6.71875 -7.53125 C 7.03125 -7.820312 7.1875 -8.222656 7.1875 -8.734375 C 7.1875 -9.597656 6.707031 -10.03125 5.75 -10.03125 L 4.859375 -10.03125 Z M 4.859375 -7.09375 "/></g></g></g><g fill="#ffffff" fill-opacity="1"><g transform="translate(130.54814, 32.146241)"><g><path d="M 4.859375 -4.671875 L 4.859375 0 L 1.390625 0 L 1.390625 -12.84375 L 5.59375 -12.84375 C 9.082031 -12.84375 10.828125 -11.578125 10.828125 -9.046875 C 10.828125 -7.554688 10.101562 -6.40625 8.65625 -5.59375 L 12.390625 0 L 8.453125 0 L 5.734375 -4.671875 Z M 4.859375 -7.28125 L 5.5 -7.28125 C 6.71875 -7.28125 7.328125 -7.816406 7.328125 -8.890625 C 7.328125 -9.773438 6.734375 -10.21875 5.546875 -10.21875 L 4.859375 -10.21875 Z M 4.859375 -7.28125 "/></g></g></g><g fill="#ffffff" fill-opacity="1"><g transform="translate(142.723264, 32.146241)"><g><path d="M 1.390625 0 L 1.390625 -12.84375 L 4.875 -12.84375 L 4.875 0 Z M 1.390625 0 "/></g></g></g><g fill="#ffffff" fill-opacity="1"><g transform="translate(148.986513, 32.146241)"><g><path d="M 6.984375 0 L 4.359375 -9.25 L 4.28125 -9.25 C 4.40625 -7.675781 4.46875 -6.453125 4.46875 -5.578125 L 4.46875 0 L 1.390625 0 L 1.390625 -12.84375 L 6 -12.84375 L 8.6875 -3.71875 L 8.75 -3.71875 L 11.375 -12.84375 L 16.015625 -12.84375 L 16.015625 0 L 12.828125 0 L 12.828125 -5.625 C 12.828125 -5.914062 12.828125 -6.238281 12.828125 -6.59375 C 12.835938 -6.957031 12.878906 -7.835938 12.953125 -9.234375 L 12.875 -9.234375 L 10.28125 0 Z M 6.984375 0 "/></g></g></g><g fill="#ffffff" fill-opacity="1"><g transform="translate(166.379547, 32.146241)"><g><path d="M 9.015625 0 L 1.390625 0 L 1.390625 -12.84375 L 9.015625 -12.84375 L 9.015625 -10.0625 L 4.859375 -10.0625 L 4.859375 -8.03125 L 8.703125 -8.03125 L 8.703125 -5.25 L 4.859375 -5.25 L 4.859375 -2.828125 L 9.015625 -2.828125 Z M 9.015625 0 "/></g></g></g><g fill="#ffffff" fill-opacity="1"><g transform="translate(44.59317, 51.864652)"><g><path d="M 7.109375 -10.171875 C 6.273438 -10.171875 5.628906 -9.832031 5.171875 -9.15625 C 4.710938 -8.488281 4.484375 -7.554688 4.484375 -6.359375 C 4.484375 -3.890625 5.421875 -2.65625 7.296875 -2.65625 C 7.867188 -2.65625 8.421875 -2.734375 8.953125 -2.890625 C 9.484375 -3.054688 10.019531 -3.25 10.5625 -3.46875 L 10.5625 -0.53125 C 9.488281 -0.0625 8.273438 0.171875 6.921875 0.171875 C 4.984375 0.171875 3.492188 -0.390625 2.453125 -1.515625 C 1.421875 -2.640625 0.90625 -4.265625 0.90625 -6.390625 C 0.90625 -7.710938 1.15625 -8.875 1.65625 -9.875 C 2.164062 -10.882812 2.890625 -11.660156 3.828125 -12.203125 C 4.765625 -12.742188 5.867188 -13.015625 7.140625 -13.015625 C 8.523438 -13.015625 9.851562 -12.71875 11.125 -12.125 L 10.0625 -9.390625 C 9.582031 -9.609375 9.101562 -9.789062 8.625 -9.9375 C 8.15625 -10.09375 7.648438 -10.171875 7.109375 -10.171875 Z M 7.109375 -10.171875 "/></g></g></g><g fill="#ffffff" fill-opacity="1"><g transform="translate(56.267586, 51.864652)"><g><path d="M 13.40625 -6.4375 C 13.40625 -4.28125 12.875 -2.640625 11.8125 -1.515625 C 10.75 -0.390625 9.195312 0.171875 7.15625 0.171875 C 5.144531 0.171875 3.597656 -0.390625 2.515625 -1.515625 C 1.441406 -2.648438 0.90625 -4.296875 0.90625 -6.453125 C 0.90625 -8.585938 1.441406 -10.21875 2.515625 -11.34375 C 3.585938 -12.476562 5.140625 -13.046875 7.171875 -13.046875 C 9.210938 -13.046875 10.757812 -12.484375 11.8125 -11.359375 C 12.875 -10.242188 13.40625 -8.601562 13.40625 -6.4375 Z M 4.5625 -6.4375 C 4.5625 -3.957031 5.425781 -2.71875 7.15625 -2.71875 C 8.03125 -2.71875 8.679688 -3.015625 9.109375 -3.609375 C 9.535156 -4.210938 9.75 -5.15625 9.75 -6.4375 C 9.75 -7.71875 9.53125 -8.660156 9.09375 -9.265625 C 8.664062 -9.878906 8.023438 -10.1875 7.171875 -10.1875 C 5.429688 -10.1875 4.5625 -8.9375 4.5625 -6.4375 Z M 4.5625 -6.4375 "/></g></g></g><g fill="#ffffff" fill-opacity="1"><g transform="translate(70.603663, 51.864652)"><g><path d="M 8.59375 -12.84375 L 12.484375 -12.84375 L 8.265625 0 L 4.1875 0 L 0 -12.84375 L 3.90625 -12.84375 L 5.640625 -6.328125 C 6.003906 -4.878906 6.207031 -3.875 6.25 -3.3125 C 6.289062 -3.71875 6.367188 -4.226562 6.484375 -4.84375 C 6.609375 -5.457031 6.71875 -5.941406 6.8125 -6.296875 Z M 8.59375 -12.84375 "/></g></g></g><g fill="#ffffff" fill-opacity="1"><g transform="translate(83.086239, 51.864652)"><g><path d="M 13.40625 -6.4375 C 13.40625 -4.28125 12.875 -2.640625 11.8125 -1.515625 C 10.75 -0.390625 9.195312 0.171875 7.15625 0.171875 C 5.144531 0.171875 3.597656 -0.390625 2.515625 -1.515625 C 1.441406 -2.648438 0.90625 -4.296875 0.90625 -6.453125 C 0.90625 -8.585938 1.441406 -10.21875 2.515625 -11.34375 C 3.585938 -12.476562 5.140625 -13.046875 7.171875 -13.046875 C 9.210938 -13.046875 10.757812 -12.484375 11.8125 -11.359375 C 12.875 -10.242188 13.40625 -8.601562 13.40625 -6.4375 Z M 4.5625 -6.4375 C 4.5625 -3.957031 5.425781 -2.71875 7.15625 -2.71875 C 8.03125 -2.71875 8.679688 -3.015625 9.109375 -3.609375 C 9.535156 -4.210938 9.75 -5.15625 9.75 -6.4375 C 9.75 -7.71875 9.53125 -8.660156 9.09375 -9.265625 C 8.664062 -9.878906 8.023438 -10.1875 7.171875 -10.1875 C 5.429688 -10.1875 4.5625 -8.9375 4.5625 -6.4375 Z M 4.5625 -6.4375 "/></g></g></g><g fill="#ffffff" fill-opacity="1"><g transform="translate(97.422316, 51.864652)"><g><path d="M 1.390625 0 L 1.390625 -12.84375 L 4.875 -12.84375 L 4.875 0 Z M 1.390625 0 "/></g></g></g><g fill="#ffffff" fill-opacity="1"><g transform="translate(103.685566, 51.864652)"><g><path d="M 7.046875 0 L 3.578125 0 L 3.578125 -10 L 0.453125 -10 L 0.453125 -12.84375 L 10.171875 -12.84375 L 10.171875 -10 L 7.046875 -10 Z M 7.046875 0 "/></g></g></g><g fill="#ffffff" fill-opacity="1"><g transform="translate(114.314642, 51.864652)"><g><path d="M 12.296875 -12.84375 L 12.296875 -5.109375 C 12.296875 -3.429688 11.820312 -2.128906 10.875 -1.203125 C 9.925781 -0.285156 8.554688 0.171875 6.765625 0.171875 C 5.015625 0.171875 3.664062 -0.273438 2.71875 -1.171875 C 1.78125 -2.066406 1.3125 -3.351562 1.3125 -5.03125 L 1.3125 -12.84375 L 4.796875 -12.84375 L 4.796875 -5.296875 C 4.796875 -4.390625 4.96875 -3.734375 5.3125 -3.328125 C 5.65625 -2.921875 6.15625 -2.71875 6.8125 -2.71875 C 7.519531 -2.71875 8.03125 -2.921875 8.34375 -3.328125 C 8.664062 -3.734375 8.828125 -4.398438 8.828125 -5.328125 L 8.828125 -12.84375 Z M 12.296875 -12.84375 "/></g></g></g><g fill="#ffffff" fill-opacity="1"><g transform="translate(127.930401, 51.864652)"><g><path d="M 4.859375 -4.671875 L 4.859375 0 L 1.390625 0 L 1.390625 -12.84375 L 5.59375 -12.84375 C 9.082031 -12.84375 10.828125 -11.578125 10.828125 -9.046875 C 10.828125 -7.554688 10.101562 -6.40625 8.65625 -5.59375 L 12.390625 0 L 8.453125 0 L 5.734375 -4.671875 Z M 4.859375 -7.28125 L 5.5 -7.28125 C 6.71875 -7.28125 7.328125 -7.816406 7.328125 -8.890625 C 7.328125 -9.773438 6.734375 -10.21875 5.546875 -10.21875 L 4.859375 -10.21875 Z M 4.859375 -7.28125 "/></g></g></g><g fill="#ffffff" fill-opacity="1"><g transform="translate(140.105525, 51.864652)"><g><path d="M 9.265625 0 L 8.625 -2.40625 L 4.46875 -2.40625 L 3.8125 0 L 0 0 L 4.1875 -12.890625 L 8.8125 -12.890625 L 13.0625 0 Z M 7.90625 -5.25 L 7.359375 -7.359375 C 7.234375 -7.828125 7.078125 -8.429688 6.890625 -9.171875 C 6.703125 -9.921875 6.582031 -10.457031 6.53125 -10.78125 C 6.476562 -10.476562 6.375 -9.984375 6.21875 -9.296875 C 6.0625 -8.609375 5.71875 -7.257812 5.1875 -5.25 Z M 7.90625 -5.25 "/></g></g></g><g fill="#ffffff" fill-opacity="1"><g transform="translate(153.16787, 51.864652)"><g><path d="M 6.546875 -7.515625 L 12.078125 -7.515625 L 12.078125 -0.59375 C 10.578125 -0.0820312 8.925781 0.171875 7.125 0.171875 C 5.144531 0.171875 3.613281 -0.398438 2.53125 -1.546875 C 1.445312 -2.691406 0.90625 -4.328125 0.90625 -6.453125 C 0.90625 -8.523438 1.5 -10.132812 2.6875 -11.28125 C 3.875 -12.4375 5.53125 -13.015625 7.65625 -13.015625 C 8.46875 -13.015625 9.226562 -12.9375 9.9375 -12.78125 C 10.65625 -12.632812 11.28125 -12.445312 11.8125 -12.21875 L 10.71875 -9.5 C 9.789062 -9.945312 8.773438 -10.171875 7.671875 -10.171875 C 6.660156 -10.171875 5.878906 -9.84375 5.328125 -9.1875 C 4.773438 -8.53125 4.5 -7.585938 4.5 -6.359375 C 4.5 -5.160156 4.75 -4.242188 5.25 -3.609375 C 5.75 -2.984375 6.46875 -2.671875 7.40625 -2.671875 C 7.925781 -2.671875 8.398438 -2.722656 8.828125 -2.828125 L 8.828125 -4.84375 L 6.546875 -4.84375 Z M 6.546875 -7.515625 "/></g></g></g><g fill="#ffffff" fill-opacity="1"><g transform="translate(166.484961, 51.864652)"><g><path d="M 9.015625 0 L 1.390625 0 L 1.390625 -12.84375 L 9.015625 -12.84375 L 9.015625 -10.0625 L 4.859375 -10.0625 L 4.859375 -8.03125 L 8.703125 -8.03125 L 8.703125 -5.25 L 4.859375 -5.25 L 4.859375 -2.828125 L 9.015625 -2.828125 Z M 9.015625 0 "/></g></g></g></svg>